<?xml version="1.0" standalone="no"?>
<!DOCTYPE svg PUBLIC "-//W3C//DTD SVG 20010904//EN"
 "http://www.w3.org/TR/2001/REC-SVG-20010904/DTD/svg10.dtd">
<svg version="1.0" xmlns="http://www.w3.org/2000/svg"
 width="416.000000pt" height="416.000000pt" viewBox="0 0 416.000000 416.000000"
 preserveAspectRatio="xMidYMid meet">
<metadata>
Created by potrace 1.14, written by Peter Selinger 2001-2017
</metadata>
<g transform="translate(0.000000,416.000000) scale(0.100000,-0.100000)"
fill="#000000" stroke="none">
<path d="M1375 4145 c-135 -23 -242 -103 -298 -223 -28 -61 -31 -77 -34 -187
-3 -129 -15 -190 -47 -245 -54 -92 -112 -142 -207 -181 -43 -17 -79 -22 -179
-25 -141 -3 -186 -15 -268 -71 -146 -100 -206 -296 -143 -464 23 -61 52 -100
138 -186 90 -90 128 -179 125 -293 -4 -127 -34 -186 -161 -318 -77 -79 -104
-130 -121 -224 -38 -210 121 -430 330 -455 27 -3 50 -7 50 -9 0 -4 -290 -577
-365 -720 -57 -110 -61 -129 -32 -158 22 -22 28 -23 217 -23 155 0 198 2 211
14 15 12 17 11 17 -11 0 -14 28 -62 69 -117 38 -52 88 -122 112 -156 46 -66
79 -84 113 -61 18 12 84 134 229 421 l30 58 37 -28 c72 -56 157 -81 257 -78
118 5 191 41 290 144 96 100 181 140 299 141 124 2 201 -34 309 -142 85 -86
144 -121 227 -136 128 -24 227 1 334 83 27 20 49 35 50 33 12 -17 66 -109 66
-113 0 -3 12 -24 27 -48 15 -23 32 -51 39 -62 64 -116 159 -273 172 -283 9 -6
28 -12 44 -12 29 0 23 -7 183 240 42 65 60 96 67 115 1 6 7 9 11 7 22 -7 319
4 382 14 84 14 77 47 -62 287 -64 111 -126 218 -138 237 -12 19 -33 55 -47 80
-14 25 -55 96 -92 159 -37 62 -65 115 -63 117 1 2 21 6 43 8 111 14 235 109
287 219 26 55 47 153 41 194 -18 128 -47 187 -140 278 -113 112 -154 203 -149
330 5 111 48 199 141 285 150 138 187 310 104 485 -67 142 -206 223 -370 219
-175 -5 -290 42 -376 154 -58 77 -76 140 -79 282 -3 143 -21 203 -83 280 -48
58 -66 73 -130 106 -111 56 -241 60 -350 8 -34 -16 -84 -55 -131 -101 -122
-120 -214 -160 -343 -150 -103 8 -179 48 -275 144 -125 123 -227 161 -368 138z"/>
</g>
</svg>
